<mxfile host="Electron" agent="Mozilla/5.0 (Windows NT 10.0; Win64; x64) AppleWebKit/537.36 (KHTML, like Gecko) draw.io/27.0.5 Chrome/134.0.6998.205 Electron/35.3.0 Safari/537.36" version="27.0.5">
  <diagram name="Page-1" id="aCdesyKWgIRTzpQv8DAT">
    <mxGraphModel dx="1426" dy="841" grid="0" gridSize="10" guides="1" tooltips="1" connect="1" arrows="1" fold="1" page="1" pageScale="1" pageWidth="1169" pageHeight="827" background="#ffffff" math="0" shadow="0">
      <root>
        <mxCell id="0" />
        <mxCell id="1" parent="0" />
        <mxCell id="0HNy9rPGnwpjirOVKz7A-1" value="&lt;font style=&quot;color: rgb(0, 0, 0);&quot;&gt;GTE1Y4_Vendeglatas&lt;/font&gt;" style="rounded=0;whiteSpace=wrap;html=1;fillColor=#FFFFFF;strokeColor=#000000;" vertex="1" parent="1">
          <mxGeometry x="525" y="17" width="120" height="34" as="geometry" />
        </mxCell>
        <mxCell id="0HNy9rPGnwpjirOVKz7A-4" value="" style="group" vertex="1" connectable="0" parent="1">
          <mxGeometry x="115" y="96" width="73" height="46" as="geometry" />
        </mxCell>
        <mxCell id="0HNy9rPGnwpjirOVKz7A-2" value="" style="ellipse;whiteSpace=wrap;html=1;fillColor=#FFFFFF;strokeColor=#000000;" vertex="1" parent="0HNy9rPGnwpjirOVKz7A-4">
          <mxGeometry width="73" height="46" as="geometry" />
        </mxCell>
        <mxCell id="0HNy9rPGnwpjirOVKz7A-3" value="&lt;font style=&quot;color: rgb(0, 0, 0); font-size: 10px;&quot;&gt;Étterem&lt;/font&gt;" style="ellipse;whiteSpace=wrap;html=1;fillColor=#FFFFFF;strokeColor=#000000;" vertex="1" parent="0HNy9rPGnwpjirOVKz7A-4">
          <mxGeometry x="7" y="5" width="59" height="36" as="geometry" />
        </mxCell>
        <mxCell id="0HNy9rPGnwpjirOVKz7A-5" value="" style="group" vertex="1" connectable="0" parent="1">
          <mxGeometry x="269" y="96" width="73" height="46" as="geometry" />
        </mxCell>
        <mxCell id="0HNy9rPGnwpjirOVKz7A-6" value="" style="ellipse;whiteSpace=wrap;html=1;fillColor=#FFFFFF;strokeColor=#000000;" vertex="1" parent="0HNy9rPGnwpjirOVKz7A-5">
          <mxGeometry width="73" height="46" as="geometry" />
        </mxCell>
        <mxCell id="0HNy9rPGnwpjirOVKz7A-7" value="&lt;font style=&quot;color: rgb(0, 0, 0); font-size: 10px;&quot;&gt;Főszakács&lt;/font&gt;" style="ellipse;whiteSpace=wrap;html=1;fillColor=#FFFFFF;strokeColor=#000000;" vertex="1" parent="0HNy9rPGnwpjirOVKz7A-5">
          <mxGeometry x="7" y="5" width="59" height="36" as="geometry" />
        </mxCell>
        <mxCell id="0HNy9rPGnwpjirOVKz7A-8" value="" style="group" vertex="1" connectable="0" parent="1">
          <mxGeometry x="442" y="98" width="73" height="46" as="geometry" />
        </mxCell>
        <mxCell id="0HNy9rPGnwpjirOVKz7A-9" value="" style="ellipse;whiteSpace=wrap;html=1;fillColor=#FFFFFF;strokeColor=#000000;" vertex="1" parent="0HNy9rPGnwpjirOVKz7A-8">
          <mxGeometry width="73" height="46" as="geometry" />
        </mxCell>
        <mxCell id="0HNy9rPGnwpjirOVKz7A-10" value="&lt;font style=&quot;color: rgb(0, 0, 0); font-size: 10px;&quot;&gt;Szakács&lt;/font&gt;" style="ellipse;whiteSpace=wrap;html=1;fillColor=#FFFFFF;strokeColor=#000000;" vertex="1" parent="0HNy9rPGnwpjirOVKz7A-8">
          <mxGeometry x="7" y="5" width="59" height="36" as="geometry" />
        </mxCell>
        <mxCell id="0HNy9rPGnwpjirOVKz7A-11" value="" style="group" vertex="1" connectable="0" parent="1">
          <mxGeometry x="605" y="98" width="73" height="46" as="geometry" />
        </mxCell>
        <mxCell id="0HNy9rPGnwpjirOVKz7A-12" value="" style="ellipse;whiteSpace=wrap;html=1;fillColor=#FFFFFF;strokeColor=#000000;" vertex="1" parent="0HNy9rPGnwpjirOVKz7A-11">
          <mxGeometry width="73" height="46" as="geometry" />
        </mxCell>
        <mxCell id="0HNy9rPGnwpjirOVKz7A-13" value="&lt;font style=&quot;color: rgb(0, 0, 0); font-size: 11px;&quot;&gt;Gyakornok&lt;/font&gt;" style="ellipse;whiteSpace=wrap;html=1;fillColor=#FFFFFF;strokeColor=#000000;" vertex="1" parent="0HNy9rPGnwpjirOVKz7A-11">
          <mxGeometry x="7" y="5" width="59" height="36" as="geometry" />
        </mxCell>
        <mxCell id="0HNy9rPGnwpjirOVKz7A-14" value="" style="group" vertex="1" connectable="0" parent="1">
          <mxGeometry x="777" y="96" width="73" height="46" as="geometry" />
        </mxCell>
        <mxCell id="0HNy9rPGnwpjirOVKz7A-15" value="" style="ellipse;whiteSpace=wrap;html=1;fillColor=#FFFFFF;strokeColor=#000000;" vertex="1" parent="0HNy9rPGnwpjirOVKz7A-14">
          <mxGeometry width="73" height="46" as="geometry" />
        </mxCell>
        <mxCell id="0HNy9rPGnwpjirOVKz7A-16" value="&lt;font style=&quot;color: rgb(0, 0, 0); font-size: 10px;&quot;&gt;Vendég&lt;/font&gt;" style="ellipse;whiteSpace=wrap;html=1;fillColor=#FFFFFF;strokeColor=#000000;" vertex="1" parent="0HNy9rPGnwpjirOVKz7A-14">
          <mxGeometry x="7" y="5" width="59" height="36" as="geometry" />
        </mxCell>
        <mxCell id="0HNy9rPGnwpjirOVKz7A-17" value="" style="group" vertex="1" connectable="0" parent="1">
          <mxGeometry x="939" y="96" width="73" height="46" as="geometry" />
        </mxCell>
        <mxCell id="0HNy9rPGnwpjirOVKz7A-18" value="" style="ellipse;whiteSpace=wrap;html=1;fillColor=#FFFFFF;strokeColor=#000000;" vertex="1" parent="0HNy9rPGnwpjirOVKz7A-17">
          <mxGeometry width="73" height="46" as="geometry" />
        </mxCell>
        <mxCell id="0HNy9rPGnwpjirOVKz7A-19" value="&lt;font style=&quot;color: rgb(0, 0, 0); font-size: 10px;&quot;&gt;Rendelés&lt;/font&gt;" style="ellipse;whiteSpace=wrap;html=1;fillColor=#FFFFFF;strokeColor=#000000;" vertex="1" parent="0HNy9rPGnwpjirOVKz7A-17">
          <mxGeometry x="7" y="5" width="59" height="36" as="geometry" />
        </mxCell>
        <mxCell id="0HNy9rPGnwpjirOVKz7A-21" value="&lt;font style=&quot;color: rgb(0, 0, 0); font-size: 10px;&quot;&gt;&lt;u&gt;Ekod&lt;/u&gt;&lt;/font&gt;" style="rhombus;whiteSpace=wrap;html=1;fillColor=#FFFFFF;strokeColor=#000000;" vertex="1" parent="1">
          <mxGeometry x="13" y="165" width="42" height="42" as="geometry" />
        </mxCell>
        <mxCell id="0HNy9rPGnwpjirOVKz7A-22" value="&lt;font style=&quot;color: rgb(0, 0, 0); font-size: 10px;&quot;&gt;&lt;u&gt;Fkod&lt;/u&gt;&lt;/font&gt;" style="rhombus;whiteSpace=wrap;html=1;fillColor=#FFFFFF;strokeColor=#000000;" vertex="1" parent="1">
          <mxGeometry x="217" y="165" width="42" height="42" as="geometry" />
        </mxCell>
        <mxCell id="0HNy9rPGnwpjirOVKz7A-23" value="&lt;font style=&quot;color: rgb(0, 0, 0); font-size: 10px;&quot;&gt;E_F&lt;/font&gt;" style="rhombus;whiteSpace=wrap;html=1;fillColor=#FFFFFF;strokeColor=#000000;" vertex="1" parent="1">
          <mxGeometry x="337" y="163" width="42" height="42" as="geometry" />
        </mxCell>
        <mxCell id="0HNy9rPGnwpjirOVKz7A-24" value="&lt;font style=&quot;color: rgb(0, 0, 0); font-size: 10px;&quot;&gt;&lt;u&gt;Szkod&lt;/u&gt;&lt;/font&gt;" style="rhombus;whiteSpace=wrap;html=1;fillColor=#FFFFFF;strokeColor=#000000;" vertex="1" parent="1">
          <mxGeometry x="402" y="165" width="42" height="42" as="geometry" />
        </mxCell>
        <mxCell id="0HNy9rPGnwpjirOVKz7A-25" value="&lt;font style=&quot;color: rgb(0, 0, 0); font-size: 10px;&quot;&gt;E_Sz&lt;/font&gt;" style="rhombus;whiteSpace=wrap;html=1;fillColor=#FFFFFF;strokeColor=#000000;" vertex="1" parent="1">
          <mxGeometry x="504" y="165" width="42" height="42" as="geometry" />
        </mxCell>
        <mxCell id="0HNy9rPGnwpjirOVKz7A-26" value="&lt;font style=&quot;color: rgb(0, 0, 0); font-size: 10px;&quot;&gt;&lt;u&gt;Gykod&lt;/u&gt;&lt;/font&gt;" style="rhombus;whiteSpace=wrap;html=1;fillColor=#FFFFFF;strokeColor=#000000;" vertex="1" parent="1">
          <mxGeometry x="566" y="165" width="42" height="42" as="geometry" />
        </mxCell>
        <mxCell id="0HNy9rPGnwpjirOVKz7A-27" value="&lt;font style=&quot;color: rgb(0, 0, 0); font-size: 10px;&quot;&gt;E_Gy&lt;/font&gt;" style="rhombus;whiteSpace=wrap;html=1;fillColor=#FFFFFF;strokeColor=#000000;" vertex="1" parent="1">
          <mxGeometry x="670" y="165" width="42" height="42" as="geometry" />
        </mxCell>
        <mxCell id="0HNy9rPGnwpjirOVKz7A-28" value="&lt;font style=&quot;color: rgb(0, 0, 0); font-size: 10px;&quot;&gt;&lt;u&gt;Vkod&lt;/u&gt;&lt;/font&gt;" style="rhombus;whiteSpace=wrap;html=1;fillColor=#FFFFFF;strokeColor=#000000;" vertex="1" parent="1">
          <mxGeometry x="731" y="165" width="42" height="42" as="geometry" />
        </mxCell>
        <mxCell id="0HNy9rPGnwpjirOVKz7A-29" value="&lt;font style=&quot;color: rgb(0, 0, 0); font-size: 10px;&quot;&gt;E_V_V&lt;/font&gt;" style="rhombus;whiteSpace=wrap;html=1;fillColor=#FFFFFF;strokeColor=#000000;" vertex="1" parent="1">
          <mxGeometry x="890" y="165" width="42" height="42" as="geometry" />
        </mxCell>
        <mxCell id="0HNy9rPGnwpjirOVKz7A-30" value="&lt;font style=&quot;color: rgb(0, 0, 0); font-size: 10px;&quot;&gt;E_V_E&lt;/font&gt;" style="rhombus;whiteSpace=wrap;html=1;fillColor=#FFFFFF;strokeColor=#000000;" vertex="1" parent="1">
          <mxGeometry x="1018" y="165" width="42" height="42" as="geometry" />
        </mxCell>
        <mxCell id="0HNy9rPGnwpjirOVKz7A-31" value="" style="endArrow=none;html=1;rounded=0;strokeColor=#000000;entryX=0.5;entryY=1;entryDx=0;entryDy=0;exitX=0.5;exitY=0;exitDx=0;exitDy=0;" edge="1" parent="1" source="0HNy9rPGnwpjirOVKz7A-2" target="0HNy9rPGnwpjirOVKz7A-1">
          <mxGeometry width="50" height="50" relative="1" as="geometry">
            <mxPoint x="219" y="76" as="sourcePoint" />
            <mxPoint x="269" y="26" as="targetPoint" />
          </mxGeometry>
        </mxCell>
        <mxCell id="0HNy9rPGnwpjirOVKz7A-32" value="" style="endArrow=none;html=1;rounded=0;strokeColor=#000000;entryX=0.5;entryY=1;entryDx=0;entryDy=0;exitX=0.5;exitY=0;exitDx=0;exitDy=0;" edge="1" parent="1" source="0HNy9rPGnwpjirOVKz7A-6" target="0HNy9rPGnwpjirOVKz7A-1">
          <mxGeometry width="50" height="50" relative="1" as="geometry">
            <mxPoint x="392" y="132" as="sourcePoint" />
            <mxPoint x="442" y="82" as="targetPoint" />
          </mxGeometry>
        </mxCell>
        <mxCell id="0HNy9rPGnwpjirOVKz7A-33" value="" style="endArrow=none;html=1;rounded=0;strokeColor=#000000;entryX=0.5;entryY=1;entryDx=0;entryDy=0;exitX=0.5;exitY=0;exitDx=0;exitDy=0;" edge="1" parent="1" source="0HNy9rPGnwpjirOVKz7A-9" target="0HNy9rPGnwpjirOVKz7A-1">
          <mxGeometry width="50" height="50" relative="1" as="geometry">
            <mxPoint x="541" y="110" as="sourcePoint" />
            <mxPoint x="591" y="60" as="targetPoint" />
          </mxGeometry>
        </mxCell>
        <mxCell id="0HNy9rPGnwpjirOVKz7A-35" value="" style="endArrow=none;html=1;rounded=0;strokeColor=#000000;entryX=0.5;entryY=1;entryDx=0;entryDy=0;exitX=0.5;exitY=0;exitDx=0;exitDy=0;" edge="1" parent="1" source="0HNy9rPGnwpjirOVKz7A-15" target="0HNy9rPGnwpjirOVKz7A-1">
          <mxGeometry width="50" height="50" relative="1" as="geometry">
            <mxPoint x="834" y="80" as="sourcePoint" />
            <mxPoint x="741" y="37" as="targetPoint" />
          </mxGeometry>
        </mxCell>
        <mxCell id="0HNy9rPGnwpjirOVKz7A-36" value="" style="endArrow=none;html=1;rounded=0;strokeColor=#000000;entryX=0.5;entryY=1;entryDx=0;entryDy=0;exitX=0.5;exitY=0;exitDx=0;exitDy=0;" edge="1" parent="1" source="0HNy9rPGnwpjirOVKz7A-18" target="0HNy9rPGnwpjirOVKz7A-1">
          <mxGeometry width="50" height="50" relative="1" as="geometry">
            <mxPoint x="882" y="83" as="sourcePoint" />
            <mxPoint x="932" y="33" as="targetPoint" />
          </mxGeometry>
        </mxCell>
        <mxCell id="0HNy9rPGnwpjirOVKz7A-37" value="" style="endArrow=none;html=1;rounded=0;strokeColor=#000000;entryX=0.5;entryY=1;entryDx=0;entryDy=0;exitX=0.5;exitY=0;exitDx=0;exitDy=0;" edge="1" parent="1" source="0HNy9rPGnwpjirOVKz7A-21" target="0HNy9rPGnwpjirOVKz7A-2">
          <mxGeometry width="50" height="50" relative="1" as="geometry">
            <mxPoint x="22" y="156" as="sourcePoint" />
            <mxPoint x="72" y="106" as="targetPoint" />
          </mxGeometry>
        </mxCell>
        <mxCell id="0HNy9rPGnwpjirOVKz7A-34" value="" style="endArrow=none;html=1;rounded=0;strokeColor=#000000;entryX=0.5;entryY=1;entryDx=0;entryDy=0;exitX=0.5;exitY=0;exitDx=0;exitDy=0;" edge="1" parent="1" source="0HNy9rPGnwpjirOVKz7A-12" target="0HNy9rPGnwpjirOVKz7A-1">
          <mxGeometry width="50" height="50" relative="1" as="geometry">
            <mxPoint x="566" y="133" as="sourcePoint" />
            <mxPoint x="616" y="83" as="targetPoint" />
          </mxGeometry>
        </mxCell>
        <mxCell id="0HNy9rPGnwpjirOVKz7A-38" value="" style="endArrow=none;html=1;rounded=0;strokeColor=#000000;entryX=0.5;entryY=1;entryDx=0;entryDy=0;exitX=0.5;exitY=0;exitDx=0;exitDy=0;" edge="1" parent="1" source="0HNy9rPGnwpjirOVKz7A-22" target="0HNy9rPGnwpjirOVKz7A-6">
          <mxGeometry width="50" height="50" relative="1" as="geometry">
            <mxPoint x="186" y="179" as="sourcePoint" />
            <mxPoint x="236" y="129" as="targetPoint" />
          </mxGeometry>
        </mxCell>
        <mxCell id="0HNy9rPGnwpjirOVKz7A-39" value="" style="endArrow=none;html=1;rounded=0;strokeColor=#000000;entryX=0.5;entryY=1;entryDx=0;entryDy=0;exitX=0.5;exitY=0;exitDx=0;exitDy=0;" edge="1" parent="1" source="0HNy9rPGnwpjirOVKz7A-23" target="0HNy9rPGnwpjirOVKz7A-6">
          <mxGeometry width="50" height="50" relative="1" as="geometry">
            <mxPoint x="259" y="298" as="sourcePoint" />
            <mxPoint x="309" y="248" as="targetPoint" />
          </mxGeometry>
        </mxCell>
        <mxCell id="0HNy9rPGnwpjirOVKz7A-40" value="" style="endArrow=none;html=1;rounded=0;strokeColor=#000000;entryX=0.5;entryY=1;entryDx=0;entryDy=0;exitX=0.5;exitY=0;exitDx=0;exitDy=0;" edge="1" parent="1" source="0HNy9rPGnwpjirOVKz7A-24" target="0HNy9rPGnwpjirOVKz7A-9">
          <mxGeometry width="50" height="50" relative="1" as="geometry">
            <mxPoint x="438" y="225" as="sourcePoint" />
            <mxPoint x="488" y="175" as="targetPoint" />
          </mxGeometry>
        </mxCell>
        <mxCell id="0HNy9rPGnwpjirOVKz7A-41" value="" style="endArrow=none;html=1;rounded=0;strokeColor=#000000;entryX=0.5;entryY=1;entryDx=0;entryDy=0;exitX=0.5;exitY=0;exitDx=0;exitDy=0;" edge="1" parent="1" source="0HNy9rPGnwpjirOVKz7A-25" target="0HNy9rPGnwpjirOVKz7A-9">
          <mxGeometry width="50" height="50" relative="1" as="geometry">
            <mxPoint x="436" y="320" as="sourcePoint" />
            <mxPoint x="486" y="270" as="targetPoint" />
          </mxGeometry>
        </mxCell>
        <mxCell id="0HNy9rPGnwpjirOVKz7A-42" value="" style="endArrow=none;html=1;rounded=0;strokeColor=#000000;entryX=0.5;entryY=1;entryDx=0;entryDy=0;exitX=0.5;exitY=0;exitDx=0;exitDy=0;" edge="1" parent="1" source="0HNy9rPGnwpjirOVKz7A-26" target="0HNy9rPGnwpjirOVKz7A-12">
          <mxGeometry width="50" height="50" relative="1" as="geometry">
            <mxPoint x="576" y="320" as="sourcePoint" />
            <mxPoint x="626" y="270" as="targetPoint" />
          </mxGeometry>
        </mxCell>
        <mxCell id="0HNy9rPGnwpjirOVKz7A-43" value="" style="endArrow=none;html=1;rounded=0;strokeColor=#000000;entryX=0.5;entryY=1;entryDx=0;entryDy=0;exitX=0.5;exitY=0;exitDx=0;exitDy=0;" edge="1" parent="1" source="0HNy9rPGnwpjirOVKz7A-27" target="0HNy9rPGnwpjirOVKz7A-12">
          <mxGeometry width="50" height="50" relative="1" as="geometry">
            <mxPoint x="571" y="321" as="sourcePoint" />
            <mxPoint x="621" y="271" as="targetPoint" />
          </mxGeometry>
        </mxCell>
        <mxCell id="0HNy9rPGnwpjirOVKz7A-44" value="" style="endArrow=none;html=1;rounded=0;strokeColor=#000000;entryX=0.5;entryY=1;entryDx=0;entryDy=0;exitX=0.5;exitY=0;exitDx=0;exitDy=0;" edge="1" parent="1" source="0HNy9rPGnwpjirOVKz7A-28" target="0HNy9rPGnwpjirOVKz7A-15">
          <mxGeometry width="50" height="50" relative="1" as="geometry">
            <mxPoint x="781" y="224" as="sourcePoint" />
            <mxPoint x="831" y="174" as="targetPoint" />
          </mxGeometry>
        </mxCell>
        <mxCell id="0HNy9rPGnwpjirOVKz7A-45" value="" style="endArrow=none;html=1;rounded=0;strokeColor=#000000;entryX=0.5;entryY=1;entryDx=0;entryDy=0;exitX=0.5;exitY=0;exitDx=0;exitDy=0;" edge="1" parent="1" source="0HNy9rPGnwpjirOVKz7A-29" target="0HNy9rPGnwpjirOVKz7A-18">
          <mxGeometry width="50" height="50" relative="1" as="geometry">
            <mxPoint x="947.5" y="470" as="sourcePoint" />
            <mxPoint x="915" y="335" as="targetPoint" />
          </mxGeometry>
        </mxCell>
        <mxCell id="0HNy9rPGnwpjirOVKz7A-46" value="" style="endArrow=none;html=1;rounded=0;strokeColor=#000000;entryX=0.5;entryY=1;entryDx=0;entryDy=0;exitX=0.5;exitY=0;exitDx=0;exitDy=0;" edge="1" parent="1" source="0HNy9rPGnwpjirOVKz7A-30" target="0HNy9rPGnwpjirOVKz7A-18">
          <mxGeometry width="50" height="50" relative="1" as="geometry">
            <mxPoint x="939" y="308" as="sourcePoint" />
            <mxPoint x="989" y="258" as="targetPoint" />
          </mxGeometry>
        </mxCell>
        <mxCell id="0HNy9rPGnwpjirOVKz7A-47" value="" style="endArrow=none;html=1;rounded=0;strokeColor=#000000;entryX=0.5;entryY=1;entryDx=0;entryDy=0;exitX=0.5;exitY=0;exitDx=0;exitDy=0;" edge="1" parent="1" source="0HNy9rPGnwpjirOVKz7A-48" target="0HNy9rPGnwpjirOVKz7A-2">
          <mxGeometry width="50" height="50" relative="1" as="geometry">
            <mxPoint x="94" y="209" as="sourcePoint" />
            <mxPoint x="144" y="159" as="targetPoint" />
          </mxGeometry>
        </mxCell>
        <mxCell id="0HNy9rPGnwpjirOVKz7A-48" value="&lt;font style=&quot;color: rgb(0, 0, 0); font-size: 10px;&quot;&gt;Név&lt;/font&gt;" style="ellipse;whiteSpace=wrap;html=1;fillColor=#FFFFFF;strokeColor=#000000;" vertex="1" parent="1">
          <mxGeometry x="37" y="330" width="47" height="34" as="geometry" />
        </mxCell>
        <mxCell id="0HNy9rPGnwpjirOVKz7A-49" value="&lt;font style=&quot;color: rgb(0, 0, 0); font-size: 10px;&quot;&gt;Cím&lt;/font&gt;" style="ellipse;whiteSpace=wrap;html=1;fillColor=#FFFFFF;strokeColor=#000000;" vertex="1" parent="1">
          <mxGeometry x="90" y="330" width="47" height="34" as="geometry" />
        </mxCell>
        <mxCell id="0HNy9rPGnwpjirOVKz7A-50" value="&lt;font style=&quot;color: rgb(0, 0, 0); font-size: 10px;&quot;&gt;Csillag&lt;/font&gt;" style="ellipse;whiteSpace=wrap;html=1;fillColor=#FFFFFF;strokeColor=#000000;" vertex="1" parent="1">
          <mxGeometry x="143" y="330" width="47" height="34" as="geometry" />
        </mxCell>
        <mxCell id="0HNy9rPGnwpjirOVKz7A-53" value="" style="endArrow=none;html=1;rounded=0;strokeColor=#000000;entryX=0.5;entryY=1;entryDx=0;entryDy=0;exitX=0.5;exitY=0;exitDx=0;exitDy=0;" edge="1" parent="1" source="0HNy9rPGnwpjirOVKz7A-49" target="0HNy9rPGnwpjirOVKz7A-2">
          <mxGeometry width="50" height="50" relative="1" as="geometry">
            <mxPoint x="120" y="226" as="sourcePoint" />
            <mxPoint x="170" y="176" as="targetPoint" />
          </mxGeometry>
        </mxCell>
        <mxCell id="0HNy9rPGnwpjirOVKz7A-54" value="" style="endArrow=none;html=1;rounded=0;strokeColor=#000000;entryX=0.5;entryY=1;entryDx=0;entryDy=0;exitX=0.5;exitY=0;exitDx=0;exitDy=0;" edge="1" parent="1" source="0HNy9rPGnwpjirOVKz7A-50" target="0HNy9rPGnwpjirOVKz7A-2">
          <mxGeometry width="50" height="50" relative="1" as="geometry">
            <mxPoint x="248" y="345" as="sourcePoint" />
            <mxPoint x="298" y="295" as="targetPoint" />
          </mxGeometry>
        </mxCell>
        <mxCell id="0HNy9rPGnwpjirOVKz7A-55" value="" style="endArrow=none;html=1;rounded=0;strokeColor=#000000;entryX=0.5;entryY=1;entryDx=0;entryDy=0;exitX=0.5;exitY=0;exitDx=0;exitDy=0;" edge="1" parent="1" source="0HNy9rPGnwpjirOVKz7A-64" target="0HNy9rPGnwpjirOVKz7A-49">
          <mxGeometry width="50" height="50" relative="1" as="geometry">
            <mxPoint x="55" y="432" as="sourcePoint" />
            <mxPoint x="105" y="382" as="targetPoint" />
          </mxGeometry>
        </mxCell>
        <mxCell id="0HNy9rPGnwpjirOVKz7A-56" value="" style="endArrow=none;html=1;rounded=0;strokeColor=#000000;entryX=0.5;entryY=1;entryDx=0;entryDy=0;exitX=0.5;exitY=0;exitDx=0;exitDy=0;" edge="1" parent="1" source="0HNy9rPGnwpjirOVKz7A-65" target="0HNy9rPGnwpjirOVKz7A-49">
          <mxGeometry width="50" height="50" relative="1" as="geometry">
            <mxPoint x="309" y="483" as="sourcePoint" />
            <mxPoint x="359" y="433" as="targetPoint" />
          </mxGeometry>
        </mxCell>
        <mxCell id="0HNy9rPGnwpjirOVKz7A-57" value="" style="endArrow=none;html=1;rounded=0;strokeColor=#000000;entryX=0.5;entryY=1;entryDx=0;entryDy=0;exitX=0.5;exitY=0;exitDx=0;exitDy=0;" edge="1" parent="1" source="0HNy9rPGnwpjirOVKz7A-66" target="0HNy9rPGnwpjirOVKz7A-49">
          <mxGeometry width="50" height="50" relative="1" as="geometry">
            <mxPoint x="269" y="436" as="sourcePoint" />
            <mxPoint x="319" y="386" as="targetPoint" />
          </mxGeometry>
        </mxCell>
        <mxCell id="0HNy9rPGnwpjirOVKz7A-58" value="" style="endArrow=none;html=1;rounded=0;strokeColor=#000000;exitX=0;exitY=0.5;exitDx=0;exitDy=0;entryX=0.5;entryY=1;entryDx=0;entryDy=0;" edge="1" parent="1" source="0HNy9rPGnwpjirOVKz7A-68" target="0HNy9rPGnwpjirOVKz7A-50">
          <mxGeometry width="50" height="50" relative="1" as="geometry">
            <mxPoint x="221" y="409" as="sourcePoint" />
            <mxPoint x="271" y="359" as="targetPoint" />
          </mxGeometry>
        </mxCell>
        <mxCell id="0HNy9rPGnwpjirOVKz7A-59" value="" style="endArrow=none;html=1;rounded=0;strokeColor=#000000;entryX=0.5;entryY=1;entryDx=0;entryDy=0;exitX=0;exitY=0.5;exitDx=0;exitDy=0;" edge="1" parent="1" source="0HNy9rPGnwpjirOVKz7A-67" target="0HNy9rPGnwpjirOVKz7A-48">
          <mxGeometry width="50" height="50" relative="1" as="geometry">
            <mxPoint x="11" y="419" as="sourcePoint" />
            <mxPoint x="61" y="369" as="targetPoint" />
          </mxGeometry>
        </mxCell>
        <mxCell id="0HNy9rPGnwpjirOVKz7A-60" value="" style="endArrow=none;html=1;rounded=0;strokeColor=#000000;entryX=0.5;entryY=1;entryDx=0;entryDy=0;exitX=0;exitY=0.5;exitDx=0;exitDy=0;" edge="1" parent="1" source="0HNy9rPGnwpjirOVKz7A-69" target="0HNy9rPGnwpjirOVKz7A-66">
          <mxGeometry width="50" height="50" relative="1" as="geometry">
            <mxPoint x="219" y="559" as="sourcePoint" />
            <mxPoint x="269" y="509" as="targetPoint" />
          </mxGeometry>
        </mxCell>
        <mxCell id="0HNy9rPGnwpjirOVKz7A-61" value="" style="endArrow=none;html=1;rounded=0;strokeColor=#000000;entryX=0.5;entryY=1;entryDx=0;entryDy=0;exitX=0;exitY=0.5;exitDx=0;exitDy=0;" edge="1" parent="1" source="0HNy9rPGnwpjirOVKz7A-70" target="0HNy9rPGnwpjirOVKz7A-65">
          <mxGeometry width="50" height="50" relative="1" as="geometry">
            <mxPoint x="251" y="565" as="sourcePoint" />
            <mxPoint x="301" y="515" as="targetPoint" />
          </mxGeometry>
        </mxCell>
        <mxCell id="0HNy9rPGnwpjirOVKz7A-62" value="" style="endArrow=none;html=1;rounded=0;strokeColor=#000000;entryX=0.5;entryY=1;entryDx=0;entryDy=0;exitX=0;exitY=0.5;exitDx=0;exitDy=0;" edge="1" parent="1" source="0HNy9rPGnwpjirOVKz7A-71" target="0HNy9rPGnwpjirOVKz7A-64">
          <mxGeometry width="50" height="50" relative="1" as="geometry">
            <mxPoint x="246" y="581" as="sourcePoint" />
            <mxPoint x="296" y="531" as="targetPoint" />
          </mxGeometry>
        </mxCell>
        <mxCell id="0HNy9rPGnwpjirOVKz7A-63" value="" style="endArrow=none;html=1;rounded=0;strokeColor=#000000;entryX=0.5;entryY=1;entryDx=0;entryDy=0;exitX=0.5;exitY=0;exitDx=0;exitDy=0;" edge="1" parent="1" source="0HNy9rPGnwpjirOVKz7A-82" target="0HNy9rPGnwpjirOVKz7A-6">
          <mxGeometry width="50" height="50" relative="1" as="geometry">
            <mxPoint x="252" y="253" as="sourcePoint" />
            <mxPoint x="302" y="203" as="targetPoint" />
          </mxGeometry>
        </mxCell>
        <mxCell id="0HNy9rPGnwpjirOVKz7A-64" value="&lt;font style=&quot;color: rgb(0, 0, 0); font-size: 10px;&quot;&gt;Város&lt;/font&gt;" style="ellipse;whiteSpace=wrap;html=1;fillColor=#FFFFFF;strokeColor=#000000;" vertex="1" parent="1">
          <mxGeometry x="37" y="478" width="47" height="34" as="geometry" />
        </mxCell>
        <mxCell id="0HNy9rPGnwpjirOVKz7A-65" value="&lt;font style=&quot;color: rgb(0, 0, 0); font-size: 10px;&quot;&gt;Utca&lt;/font&gt;" style="ellipse;whiteSpace=wrap;html=1;fillColor=#FFFFFF;strokeColor=#000000;" vertex="1" parent="1">
          <mxGeometry x="90" y="478" width="47" height="34" as="geometry" />
        </mxCell>
        <mxCell id="0HNy9rPGnwpjirOVKz7A-66" value="&lt;font style=&quot;color: rgb(0, 0, 0); font-size: 10px;&quot;&gt;Házszám&lt;/font&gt;" style="ellipse;whiteSpace=wrap;html=1;fillColor=#FFFFFF;strokeColor=#000000;" vertex="1" parent="1">
          <mxGeometry x="143" y="478" width="47" height="34" as="geometry" />
        </mxCell>
        <mxCell id="0HNy9rPGnwpjirOVKz7A-67" value="" style="rounded=0;whiteSpace=wrap;html=1;rotation=90;fillColor=#FFFFFF;strokeColor=#000000;" vertex="1" parent="1">
          <mxGeometry x="39.75" y="403" width="41.5" height="25.5" as="geometry" />
        </mxCell>
        <mxCell id="0HNy9rPGnwpjirOVKz7A-68" value="" style="rounded=0;whiteSpace=wrap;html=1;rotation=90;fillColor=#FFFFFF;strokeColor=#000000;" vertex="1" parent="1">
          <mxGeometry x="145.75" y="403" width="41.5" height="25.5" as="geometry" />
        </mxCell>
        <mxCell id="0HNy9rPGnwpjirOVKz7A-69" value="" style="rounded=0;whiteSpace=wrap;html=1;rotation=90;fillColor=#FFFFFF;strokeColor=#000000;" vertex="1" parent="1">
          <mxGeometry x="145.75" y="551" width="41.5" height="25.5" as="geometry" />
        </mxCell>
        <mxCell id="0HNy9rPGnwpjirOVKz7A-70" value="" style="rounded=0;whiteSpace=wrap;html=1;rotation=90;fillColor=#FFFFFF;strokeColor=#000000;" vertex="1" parent="1">
          <mxGeometry x="92.75" y="551" width="41.5" height="25.5" as="geometry" />
        </mxCell>
        <mxCell id="0HNy9rPGnwpjirOVKz7A-71" value="" style="rounded=0;whiteSpace=wrap;html=1;rotation=90;fillColor=#FFFFFF;strokeColor=#000000;" vertex="1" parent="1">
          <mxGeometry x="39.75" y="551" width="41.5" height="25.5" as="geometry" />
        </mxCell>
        <mxCell id="0HNy9rPGnwpjirOVKz7A-72" value="" style="endArrow=none;html=1;rounded=0;strokeColor=#000000;entryX=0.5;entryY=1;entryDx=0;entryDy=0;exitX=0.5;exitY=0;exitDx=0;exitDy=0;" edge="1" parent="1" source="0HNy9rPGnwpjirOVKz7A-83" target="0HNy9rPGnwpjirOVKz7A-6">
          <mxGeometry width="50" height="50" relative="1" as="geometry">
            <mxPoint x="280.5" y="257" as="sourcePoint" />
            <mxPoint x="330.5" y="207" as="targetPoint" />
          </mxGeometry>
        </mxCell>
        <mxCell id="0HNy9rPGnwpjirOVKz7A-73" value="" style="endArrow=none;html=1;rounded=0;strokeColor=#000000;entryX=0.5;entryY=1;entryDx=0;entryDy=0;exitX=0.5;exitY=0;exitDx=0;exitDy=0;" edge="1" parent="1" source="0HNy9rPGnwpjirOVKz7A-84" target="0HNy9rPGnwpjirOVKz7A-6">
          <mxGeometry width="50" height="50" relative="1" as="geometry">
            <mxPoint x="489" y="392" as="sourcePoint" />
            <mxPoint x="539" y="342" as="targetPoint" />
          </mxGeometry>
        </mxCell>
        <mxCell id="0HNy9rPGnwpjirOVKz7A-74" value="" style="endArrow=none;html=1;rounded=0;strokeColor=#000000;entryX=0.5;entryY=1;entryDx=0;entryDy=0;exitX=0;exitY=0.5;exitDx=0;exitDy=0;" edge="1" parent="1" source="0HNy9rPGnwpjirOVKz7A-85" target="0HNy9rPGnwpjirOVKz7A-82">
          <mxGeometry width="50" height="50" relative="1" as="geometry">
            <mxPoint x="280.5" y="520" as="sourcePoint" />
            <mxPoint x="330.5" y="470" as="targetPoint" />
          </mxGeometry>
        </mxCell>
        <mxCell id="0HNy9rPGnwpjirOVKz7A-75" value="" style="endArrow=none;html=1;rounded=0;strokeColor=#000000;entryX=0.5;entryY=1;entryDx=0;entryDy=0;exitX=0;exitY=0.5;exitDx=0;exitDy=0;" edge="1" parent="1" source="0HNy9rPGnwpjirOVKz7A-86" target="0HNy9rPGnwpjirOVKz7A-83">
          <mxGeometry width="50" height="50" relative="1" as="geometry">
            <mxPoint x="506" y="422" as="sourcePoint" />
            <mxPoint x="556" y="372" as="targetPoint" />
          </mxGeometry>
        </mxCell>
        <mxCell id="0HNy9rPGnwpjirOVKz7A-76" value="" style="endArrow=none;html=1;rounded=0;strokeColor=#000000;entryX=0.5;entryY=1;entryDx=0;entryDy=0;exitX=0;exitY=0.5;exitDx=0;exitDy=0;" edge="1" parent="1" source="0HNy9rPGnwpjirOVKz7A-87" target="0HNy9rPGnwpjirOVKz7A-84">
          <mxGeometry width="50" height="50" relative="1" as="geometry">
            <mxPoint x="440" y="448" as="sourcePoint" />
            <mxPoint x="490" y="398" as="targetPoint" />
          </mxGeometry>
        </mxCell>
        <mxCell id="0HNy9rPGnwpjirOVKz7A-77" value="" style="endArrow=none;html=1;rounded=0;strokeColor=#000000;exitX=0;exitY=0.5;exitDx=0;exitDy=0;" edge="1" parent="1" source="0HNy9rPGnwpjirOVKz7A-92">
          <mxGeometry width="50" height="50" relative="1" as="geometry">
            <mxPoint x="426" y="576.5" as="sourcePoint" />
            <mxPoint x="412" y="364" as="targetPoint" />
          </mxGeometry>
        </mxCell>
        <mxCell id="0HNy9rPGnwpjirOVKz7A-78" value="" style="endArrow=none;html=1;rounded=0;strokeColor=#000000;entryX=0.5;entryY=1;entryDx=0;entryDy=0;exitX=0;exitY=0.5;exitDx=0;exitDy=0;" edge="1" parent="1" source="0HNy9rPGnwpjirOVKz7A-94" target="0HNy9rPGnwpjirOVKz7A-90">
          <mxGeometry width="50" height="50" relative="1" as="geometry">
            <mxPoint x="515" y="601" as="sourcePoint" />
            <mxPoint x="565" y="551" as="targetPoint" />
          </mxGeometry>
        </mxCell>
        <mxCell id="0HNy9rPGnwpjirOVKz7A-79" value="" style="endArrow=none;html=1;rounded=0;strokeColor=#000000;entryX=0.5;entryY=1;entryDx=0;entryDy=0;exitX=0;exitY=0.5;exitDx=0;exitDy=0;" edge="1" parent="1" source="0HNy9rPGnwpjirOVKz7A-93" target="0HNy9rPGnwpjirOVKz7A-91">
          <mxGeometry width="50" height="50" relative="1" as="geometry">
            <mxPoint x="602" y="540" as="sourcePoint" />
            <mxPoint x="652" y="490" as="targetPoint" />
          </mxGeometry>
        </mxCell>
        <mxCell id="0HNy9rPGnwpjirOVKz7A-80" value="" style="endArrow=none;html=1;rounded=0;strokeColor=#000000;entryX=0.5;entryY=1;entryDx=0;entryDy=0;exitX=0.5;exitY=0;exitDx=0;exitDy=0;" edge="1" parent="1" source="0HNy9rPGnwpjirOVKz7A-90" target="0HNy9rPGnwpjirOVKz7A-9">
          <mxGeometry width="50" height="50" relative="1" as="geometry">
            <mxPoint x="451" y="275" as="sourcePoint" />
            <mxPoint x="501" y="225" as="targetPoint" />
          </mxGeometry>
        </mxCell>
        <mxCell id="0HNy9rPGnwpjirOVKz7A-81" value="" style="endArrow=none;html=1;rounded=0;strokeColor=#000000;exitX=0.5;exitY=0;exitDx=0;exitDy=0;entryX=0.5;entryY=1;entryDx=0;entryDy=0;" edge="1" parent="1" source="0HNy9rPGnwpjirOVKz7A-89" target="0HNy9rPGnwpjirOVKz7A-9">
          <mxGeometry width="50" height="50" relative="1" as="geometry">
            <mxPoint x="439" y="241" as="sourcePoint" />
            <mxPoint x="489" y="191" as="targetPoint" />
          </mxGeometry>
        </mxCell>
        <mxCell id="0HNy9rPGnwpjirOVKz7A-82" value="&lt;font style=&quot;color: rgb(0, 0, 0); font-size: 10px;&quot;&gt;Név&lt;/font&gt;" style="ellipse;whiteSpace=wrap;html=1;fillColor=#FFFFFF;strokeColor=#000000;" vertex="1" parent="1">
          <mxGeometry x="212" y="330" width="47" height="34" as="geometry" />
        </mxCell>
        <mxCell id="0HNy9rPGnwpjirOVKz7A-83" value="&lt;font style=&quot;color: rgb(0, 0, 0); font-size: 10px;&quot;&gt;Életkor&lt;/font&gt;" style="ellipse;whiteSpace=wrap;html=1;fillColor=#FFFFFF;strokeColor=#000000;" vertex="1" parent="1">
          <mxGeometry x="267" y="330" width="47" height="34" as="geometry" />
        </mxCell>
        <mxCell id="0HNy9rPGnwpjirOVKz7A-84" value="&lt;font style=&quot;color: rgb(0, 0, 0); font-size: 8px;&quot;&gt;Végzettség&lt;/font&gt;" style="ellipse;whiteSpace=wrap;html=1;fillColor=#FFFFFF;strokeColor=#000000;" vertex="1" parent="1">
          <mxGeometry x="322" y="330" width="47" height="34" as="geometry" />
        </mxCell>
        <mxCell id="0HNy9rPGnwpjirOVKz7A-85" value="" style="rounded=0;whiteSpace=wrap;html=1;rotation=90;fillColor=#FFFFFF;strokeColor=#000000;" vertex="1" parent="1">
          <mxGeometry x="214.75" y="403" width="41.5" height="25.5" as="geometry" />
        </mxCell>
        <mxCell id="0HNy9rPGnwpjirOVKz7A-88" value="" style="edgeStyle=orthogonalEdgeStyle;rounded=0;orthogonalLoop=1;jettySize=auto;html=1;" edge="1" parent="1" source="0HNy9rPGnwpjirOVKz7A-86" target="0HNy9rPGnwpjirOVKz7A-87">
          <mxGeometry relative="1" as="geometry" />
        </mxCell>
        <mxCell id="0HNy9rPGnwpjirOVKz7A-86" value="" style="rounded=0;whiteSpace=wrap;html=1;rotation=90;fillColor=#FFFFFF;strokeColor=#000000;" vertex="1" parent="1">
          <mxGeometry x="269.75" y="403" width="41.5" height="25.5" as="geometry" />
        </mxCell>
        <mxCell id="0HNy9rPGnwpjirOVKz7A-87" value="" style="rounded=0;whiteSpace=wrap;html=1;rotation=90;fillColor=#FFFFFF;strokeColor=#000000;" vertex="1" parent="1">
          <mxGeometry x="324.75" y="403" width="41.5" height="25.5" as="geometry" />
        </mxCell>
        <mxCell id="0HNy9rPGnwpjirOVKz7A-89" value="&lt;font style=&quot;color: rgb(0, 0, 0); font-size: 10px;&quot;&gt;Név&lt;/font&gt;" style="ellipse;whiteSpace=wrap;html=1;fillColor=#FFFFFF;strokeColor=#000000;" vertex="1" parent="1">
          <mxGeometry x="388" y="330" width="47" height="34" as="geometry" />
        </mxCell>
        <mxCell id="0HNy9rPGnwpjirOVKz7A-90" value="&lt;font style=&quot;color: rgb(0, 0, 0); font-size: 10px;&quot;&gt;Részleg&lt;/font&gt;" style="ellipse;whiteSpace=wrap;html=1;fillColor=#FFFFFF;strokeColor=#000000;" vertex="1" parent="1">
          <mxGeometry x="442" y="330" width="47" height="34" as="geometry" />
        </mxCell>
        <mxCell id="0HNy9rPGnwpjirOVKz7A-91" value="&lt;font style=&quot;color: rgb(0, 0, 0); font-size: 8px;&quot;&gt;Végzettség&lt;/font&gt;" style="ellipse;whiteSpace=wrap;html=1;fillColor=#FFFFFF;strokeColor=#000000;" vertex="1" parent="1">
          <mxGeometry x="496" y="330" width="47" height="34" as="geometry" />
        </mxCell>
        <mxCell id="0HNy9rPGnwpjirOVKz7A-92" value="" style="rounded=0;whiteSpace=wrap;html=1;rotation=90;fillColor=#FFFFFF;strokeColor=#000000;" vertex="1" parent="1">
          <mxGeometry x="390.75" y="403" width="41.5" height="25.5" as="geometry" />
        </mxCell>
        <mxCell id="0HNy9rPGnwpjirOVKz7A-93" value="" style="rounded=0;whiteSpace=wrap;html=1;rotation=90;fillColor=#FFFFFF;strokeColor=#000000;" vertex="1" parent="1">
          <mxGeometry x="498.75" y="403" width="41.5" height="25.5" as="geometry" />
        </mxCell>
        <mxCell id="0HNy9rPGnwpjirOVKz7A-94" value="" style="rounded=0;whiteSpace=wrap;html=1;rotation=90;fillColor=#FFFFFF;strokeColor=#000000;" vertex="1" parent="1">
          <mxGeometry x="444.75" y="403" width="41.5" height="25.5" as="geometry" />
        </mxCell>
        <mxCell id="0HNy9rPGnwpjirOVKz7A-96" value="" style="endArrow=none;html=1;rounded=0;strokeColor=#000000;entryX=0.5;entryY=1;entryDx=0;entryDy=0;exitX=0.5;exitY=0;exitDx=0;exitDy=0;" edge="1" parent="1" source="0HNy9rPGnwpjirOVKz7A-91" target="0HNy9rPGnwpjirOVKz7A-9">
          <mxGeometry width="50" height="50" relative="1" as="geometry">
            <mxPoint x="520" y="317" as="sourcePoint" />
            <mxPoint x="570" y="267" as="targetPoint" />
          </mxGeometry>
        </mxCell>
        <mxCell id="0HNy9rPGnwpjirOVKz7A-97" value="" style="endArrow=none;html=1;rounded=0;strokeColor=#000000;entryX=0.5;entryY=1;entryDx=0;entryDy=0;exitX=0.5;exitY=0;exitDx=0;exitDy=0;" edge="1" parent="1" source="0HNy9rPGnwpjirOVKz7A-109" target="0HNy9rPGnwpjirOVKz7A-12">
          <mxGeometry width="50" height="50" relative="1" as="geometry">
            <mxPoint x="580" y="272" as="sourcePoint" />
            <mxPoint x="630" y="222" as="targetPoint" />
          </mxGeometry>
        </mxCell>
        <mxCell id="0HNy9rPGnwpjirOVKz7A-98" value="" style="endArrow=none;html=1;rounded=0;strokeColor=#000000;entryX=0.5;entryY=1;entryDx=0;entryDy=0;exitX=0.5;exitY=0;exitDx=0;exitDy=0;" edge="1" parent="1" source="0HNy9rPGnwpjirOVKz7A-111" target="0HNy9rPGnwpjirOVKz7A-12">
          <mxGeometry width="50" height="50" relative="1" as="geometry">
            <mxPoint x="608.5" y="278" as="sourcePoint" />
            <mxPoint x="658.5" y="228" as="targetPoint" />
          </mxGeometry>
        </mxCell>
        <mxCell id="0HNy9rPGnwpjirOVKz7A-99" value="" style="endArrow=none;html=1;rounded=0;strokeColor=#000000;entryX=0.5;entryY=1;entryDx=0;entryDy=0;exitX=0.5;exitY=0;exitDx=0;exitDy=0;" edge="1" parent="1" source="0HNy9rPGnwpjirOVKz7A-110" target="0HNy9rPGnwpjirOVKz7A-12">
          <mxGeometry width="50" height="50" relative="1" as="geometry">
            <mxPoint x="729" y="309" as="sourcePoint" />
            <mxPoint x="779" y="259" as="targetPoint" />
          </mxGeometry>
        </mxCell>
        <mxCell id="0HNy9rPGnwpjirOVKz7A-100" value="" style="endArrow=none;html=1;rounded=0;strokeColor=#000000;entryX=0.5;entryY=1;entryDx=0;entryDy=0;exitX=0.5;exitY=0;exitDx=0;exitDy=0;" edge="1" parent="1" source="0HNy9rPGnwpjirOVKz7A-114" target="0HNy9rPGnwpjirOVKz7A-111">
          <mxGeometry width="50" height="50" relative="1" as="geometry">
            <mxPoint x="727" y="453" as="sourcePoint" />
            <mxPoint x="777" y="403" as="targetPoint" />
          </mxGeometry>
        </mxCell>
        <mxCell id="0HNy9rPGnwpjirOVKz7A-101" value="" style="endArrow=none;html=1;rounded=0;strokeColor=#000000;entryX=0.5;entryY=1;entryDx=0;entryDy=0;exitX=0.5;exitY=0;exitDx=0;exitDy=0;" edge="1" parent="1" source="0HNy9rPGnwpjirOVKz7A-113" target="0HNy9rPGnwpjirOVKz7A-111">
          <mxGeometry width="50" height="50" relative="1" as="geometry">
            <mxPoint x="731" y="453" as="sourcePoint" />
            <mxPoint x="781" y="403" as="targetPoint" />
          </mxGeometry>
        </mxCell>
        <mxCell id="0HNy9rPGnwpjirOVKz7A-102" value="" style="endArrow=none;html=1;rounded=0;strokeColor=#000000;entryX=0.5;entryY=1;entryDx=0;entryDy=0;exitX=0;exitY=0.5;exitDx=0;exitDy=0;" edge="1" parent="1" source="0HNy9rPGnwpjirOVKz7A-116" target="0HNy9rPGnwpjirOVKz7A-114">
          <mxGeometry width="50" height="50" relative="1" as="geometry">
            <mxPoint x="531" y="576.5" as="sourcePoint" />
            <mxPoint x="581" y="526.5" as="targetPoint" />
          </mxGeometry>
        </mxCell>
        <mxCell id="0HNy9rPGnwpjirOVKz7A-103" value="" style="endArrow=none;html=1;rounded=0;strokeColor=#000000;entryX=0.5;entryY=1;entryDx=0;entryDy=0;exitX=0;exitY=0.5;exitDx=0;exitDy=0;" edge="1" parent="1" source="0HNy9rPGnwpjirOVKz7A-117" target="0HNy9rPGnwpjirOVKz7A-113">
          <mxGeometry width="50" height="50" relative="1" as="geometry">
            <mxPoint x="747" y="542" as="sourcePoint" />
            <mxPoint x="797" y="492" as="targetPoint" />
          </mxGeometry>
        </mxCell>
        <mxCell id="0HNy9rPGnwpjirOVKz7A-104" value="" style="endArrow=none;html=1;rounded=0;strokeColor=#000000;entryX=0.5;entryY=1;entryDx=0;entryDy=0;exitX=0;exitY=0.5;exitDx=0;exitDy=0;" edge="1" parent="1" source="0HNy9rPGnwpjirOVKz7A-118" target="0HNy9rPGnwpjirOVKz7A-110">
          <mxGeometry width="50" height="50" relative="1" as="geometry">
            <mxPoint x="750" y="428.5" as="sourcePoint" />
            <mxPoint x="800" y="378.5" as="targetPoint" />
          </mxGeometry>
        </mxCell>
        <mxCell id="0HNy9rPGnwpjirOVKz7A-105" value="" style="endArrow=none;html=1;rounded=0;strokeColor=#000000;entryX=0.5;entryY=1;entryDx=0;entryDy=0;exitX=0;exitY=0.5;exitDx=0;exitDy=0;" edge="1" parent="1" source="0HNy9rPGnwpjirOVKz7A-115" target="0HNy9rPGnwpjirOVKz7A-109">
          <mxGeometry width="50" height="50" relative="1" as="geometry">
            <mxPoint x="478" y="544" as="sourcePoint" />
            <mxPoint x="528" y="494" as="targetPoint" />
          </mxGeometry>
        </mxCell>
        <mxCell id="0HNy9rPGnwpjirOVKz7A-107" value="" style="endArrow=none;html=1;rounded=0;strokeColor=#000000;entryX=0.5;entryY=1;entryDx=0;entryDy=0;exitX=0.5;exitY=0;exitDx=0;exitDy=0;" edge="1" parent="1" source="0HNy9rPGnwpjirOVKz7A-119" target="0HNy9rPGnwpjirOVKz7A-15">
          <mxGeometry width="50" height="50" relative="1" as="geometry">
            <mxPoint x="773" y="215" as="sourcePoint" />
            <mxPoint x="826" y="160" as="targetPoint" />
          </mxGeometry>
        </mxCell>
        <mxCell id="0HNy9rPGnwpjirOVKz7A-108" value="" style="endArrow=none;html=1;rounded=0;strokeColor=#000000;exitX=0.5;exitY=0;exitDx=0;exitDy=0;entryX=0.5;entryY=1;entryDx=0;entryDy=0;" edge="1" parent="1" source="0HNy9rPGnwpjirOVKz7A-121" target="0HNy9rPGnwpjirOVKz7A-15">
          <mxGeometry width="50" height="50" relative="1" as="geometry">
            <mxPoint x="788.5" y="252" as="sourcePoint" />
            <mxPoint x="841" y="152" as="targetPoint" />
          </mxGeometry>
        </mxCell>
        <mxCell id="0HNy9rPGnwpjirOVKz7A-109" value="&lt;font style=&quot;color: rgb(0, 0, 0); font-size: 10px;&quot;&gt;Név&lt;/font&gt;" style="ellipse;whiteSpace=wrap;html=1;fillColor=#FFFFFF;strokeColor=#000000;" vertex="1" parent="1">
          <mxGeometry x="561.5" y="330" width="47" height="34" as="geometry" />
        </mxCell>
        <mxCell id="0HNy9rPGnwpjirOVKz7A-110" value="&lt;font style=&quot;color: rgb(0, 0, 0); font-size: 10px;&quot;&gt;Műszak&lt;/font&gt;" style="ellipse;whiteSpace=wrap;html=1;fillColor=#FFFFFF;strokeColor=#000000;" vertex="1" parent="1">
          <mxGeometry x="675" y="330" width="47" height="34" as="geometry" />
        </mxCell>
        <mxCell id="0HNy9rPGnwpjirOVKz7A-111" value="&lt;font style=&quot;color: rgb(0, 0, 0); font-size: 10px;&quot;&gt;Gyakorlat&lt;/font&gt;" style="ellipse;whiteSpace=wrap;html=1;fillColor=#FFFFFF;strokeColor=#000000;" vertex="1" parent="1">
          <mxGeometry x="618" y="330" width="47" height="34" as="geometry" />
        </mxCell>
        <mxCell id="0HNy9rPGnwpjirOVKz7A-113" value="&lt;font style=&quot;color: rgb(0, 0, 0); font-size: 10px;&quot;&gt;Időtartam&lt;/font&gt;" style="ellipse;whiteSpace=wrap;html=1;fillColor=#FFFFFF;strokeColor=#000000;" vertex="1" parent="1">
          <mxGeometry x="649" y="478" width="47" height="34" as="geometry" />
        </mxCell>
        <mxCell id="0HNy9rPGnwpjirOVKz7A-114" value="&lt;font style=&quot;color: rgb(0, 0, 0); font-size: 10px;&quot;&gt;Kezdete&lt;/font&gt;" style="ellipse;whiteSpace=wrap;html=1;fillColor=#FFFFFF;strokeColor=#000000;" vertex="1" parent="1">
          <mxGeometry x="585" y="478" width="47" height="34" as="geometry" />
        </mxCell>
        <mxCell id="0HNy9rPGnwpjirOVKz7A-115" value="" style="rounded=0;whiteSpace=wrap;html=1;rotation=90;fillColor=#FFFFFF;strokeColor=#000000;" vertex="1" parent="1">
          <mxGeometry x="564.25" y="403" width="41.5" height="25.5" as="geometry" />
        </mxCell>
        <mxCell id="0HNy9rPGnwpjirOVKz7A-116" value="" style="rounded=0;whiteSpace=wrap;html=1;rotation=90;fillColor=#FFFFFF;strokeColor=#000000;" vertex="1" parent="1">
          <mxGeometry x="587.75" y="551" width="41.5" height="25.5" as="geometry" />
        </mxCell>
        <mxCell id="0HNy9rPGnwpjirOVKz7A-117" value="" style="rounded=0;whiteSpace=wrap;html=1;rotation=90;fillColor=#FFFFFF;strokeColor=#000000;" vertex="1" parent="1">
          <mxGeometry x="651.75" y="551" width="41.5" height="25.5" as="geometry" />
        </mxCell>
        <mxCell id="0HNy9rPGnwpjirOVKz7A-118" value="" style="rounded=0;whiteSpace=wrap;html=1;rotation=90;fillColor=#FFFFFF;strokeColor=#000000;" vertex="1" parent="1">
          <mxGeometry x="677.75" y="403" width="41.5" height="25.5" as="geometry" />
        </mxCell>
        <mxCell id="0HNy9rPGnwpjirOVKz7A-119" value="&lt;font style=&quot;color: rgb(0, 0, 0); font-size: 10px;&quot;&gt;Név&lt;/font&gt;" style="ellipse;whiteSpace=wrap;html=1;fillColor=#FFFFFF;strokeColor=#000000;" vertex="1" parent="1">
          <mxGeometry x="755" y="330" width="47" height="34" as="geometry" />
        </mxCell>
        <mxCell id="0HNy9rPGnwpjirOVKz7A-120" value="&lt;font style=&quot;color: rgb(0, 0, 0); font-size: 10px;&quot;&gt;Cím&lt;/font&gt;" style="ellipse;whiteSpace=wrap;html=1;fillColor=#FFFFFF;strokeColor=#000000;" vertex="1" parent="1">
          <mxGeometry x="857.75" y="330" width="47" height="34" as="geometry" />
        </mxCell>
        <mxCell id="0HNy9rPGnwpjirOVKz7A-121" value="&lt;font style=&quot;color: rgb(0, 0, 0); font-size: 10px;&quot;&gt;Életkor&lt;/font&gt;" style="ellipse;whiteSpace=wrap;html=1;fillColor=#FFFFFF;strokeColor=#000000;" vertex="1" parent="1">
          <mxGeometry x="806" y="330" width="47" height="34" as="geometry" />
        </mxCell>
        <mxCell id="0HNy9rPGnwpjirOVKz7A-122" value="" style="endArrow=none;html=1;rounded=0;strokeColor=#000000;entryX=0.5;entryY=1;entryDx=0;entryDy=0;exitX=0;exitY=0.5;exitDx=0;exitDy=0;" edge="1" parent="1" source="0HNy9rPGnwpjirOVKz7A-138" target="0HNy9rPGnwpjirOVKz7A-132">
          <mxGeometry width="50" height="50" relative="1" as="geometry">
            <mxPoint x="850" y="681" as="sourcePoint" />
            <mxPoint x="900" y="631" as="targetPoint" />
          </mxGeometry>
        </mxCell>
        <mxCell id="0HNy9rPGnwpjirOVKz7A-123" value="" style="endArrow=none;html=1;rounded=0;strokeColor=#000000;entryX=0.5;entryY=1;entryDx=0;entryDy=0;exitX=0;exitY=0.5;exitDx=0;exitDy=0;" edge="1" parent="1" source="0HNy9rPGnwpjirOVKz7A-137" target="0HNy9rPGnwpjirOVKz7A-133">
          <mxGeometry width="50" height="50" relative="1" as="geometry">
            <mxPoint x="848.5" y="704" as="sourcePoint" />
            <mxPoint x="898.5" y="654" as="targetPoint" />
          </mxGeometry>
        </mxCell>
        <mxCell id="0HNy9rPGnwpjirOVKz7A-124" value="" style="endArrow=none;html=1;rounded=0;strokeColor=#000000;entryX=0.5;entryY=1;entryDx=0;entryDy=0;exitX=0;exitY=0.5;exitDx=0;exitDy=0;" edge="1" parent="1" source="0HNy9rPGnwpjirOVKz7A-136" target="0HNy9rPGnwpjirOVKz7A-131">
          <mxGeometry width="50" height="50" relative="1" as="geometry">
            <mxPoint x="819" y="685" as="sourcePoint" />
            <mxPoint x="869" y="635" as="targetPoint" />
          </mxGeometry>
        </mxCell>
        <mxCell id="0HNy9rPGnwpjirOVKz7A-125" value="" style="endArrow=none;html=1;rounded=0;strokeColor=#000000;entryX=0.5;entryY=1;entryDx=0;entryDy=0;exitX=0.5;exitY=0;exitDx=0;exitDy=0;" edge="1" parent="1" source="0HNy9rPGnwpjirOVKz7A-132" target="0HNy9rPGnwpjirOVKz7A-120">
          <mxGeometry width="50" height="50" relative="1" as="geometry">
            <mxPoint x="975" y="444" as="sourcePoint" />
            <mxPoint x="1025" y="394" as="targetPoint" />
          </mxGeometry>
        </mxCell>
        <mxCell id="0HNy9rPGnwpjirOVKz7A-126" value="" style="endArrow=none;html=1;rounded=0;strokeColor=#000000;entryX=0.5;entryY=1;entryDx=0;entryDy=0;exitX=0.5;exitY=0;exitDx=0;exitDy=0;" edge="1" parent="1" source="0HNy9rPGnwpjirOVKz7A-133" target="0HNy9rPGnwpjirOVKz7A-120">
          <mxGeometry width="50" height="50" relative="1" as="geometry">
            <mxPoint x="902" y="644" as="sourcePoint" />
            <mxPoint x="952" y="594" as="targetPoint" />
          </mxGeometry>
        </mxCell>
        <mxCell id="0HNy9rPGnwpjirOVKz7A-127" value="" style="endArrow=none;html=1;rounded=0;strokeColor=#000000;entryX=0.5;entryY=1;entryDx=0;entryDy=0;exitX=0.5;exitY=0;exitDx=0;exitDy=0;" edge="1" parent="1" source="0HNy9rPGnwpjirOVKz7A-131" target="0HNy9rPGnwpjirOVKz7A-120">
          <mxGeometry width="50" height="50" relative="1" as="geometry">
            <mxPoint x="847" y="647" as="sourcePoint" />
            <mxPoint x="897" y="597" as="targetPoint" />
          </mxGeometry>
        </mxCell>
        <mxCell id="0HNy9rPGnwpjirOVKz7A-128" value="" style="endArrow=none;html=1;rounded=0;strokeColor=#000000;entryX=0.5;entryY=1;entryDx=0;entryDy=0;exitX=0;exitY=0.5;exitDx=0;exitDy=0;" edge="1" parent="1" source="0HNy9rPGnwpjirOVKz7A-134" target="0HNy9rPGnwpjirOVKz7A-121">
          <mxGeometry width="50" height="50" relative="1" as="geometry">
            <mxPoint x="886" y="439" as="sourcePoint" />
            <mxPoint x="936" y="389" as="targetPoint" />
          </mxGeometry>
        </mxCell>
        <mxCell id="0HNy9rPGnwpjirOVKz7A-129" value="" style="endArrow=none;html=1;rounded=0;strokeColor=#000000;entryX=0.5;entryY=1;entryDx=0;entryDy=0;exitX=0;exitY=0.5;exitDx=0;exitDy=0;" edge="1" parent="1" source="0HNy9rPGnwpjirOVKz7A-135" target="0HNy9rPGnwpjirOVKz7A-119">
          <mxGeometry width="50" height="50" relative="1" as="geometry">
            <mxPoint x="737.25" y="506" as="sourcePoint" />
            <mxPoint x="787.25" y="456" as="targetPoint" />
          </mxGeometry>
        </mxCell>
        <mxCell id="0HNy9rPGnwpjirOVKz7A-130" value="" style="endArrow=none;html=1;rounded=0;strokeColor=#000000;entryX=0.5;entryY=1;entryDx=0;entryDy=0;exitX=0.5;exitY=0;exitDx=0;exitDy=0;" edge="1" parent="1" source="0HNy9rPGnwpjirOVKz7A-120" target="0HNy9rPGnwpjirOVKz7A-15">
          <mxGeometry width="50" height="50" relative="1" as="geometry">
            <mxPoint x="832" y="267" as="sourcePoint" />
            <mxPoint x="882" y="217" as="targetPoint" />
          </mxGeometry>
        </mxCell>
        <mxCell id="0HNy9rPGnwpjirOVKz7A-131" value="&lt;font style=&quot;color: rgb(0, 0, 0); font-size: 10px;&quot;&gt;Város&lt;/font&gt;" style="ellipse;whiteSpace=wrap;html=1;fillColor=#FFFFFF;strokeColor=#000000;" vertex="1" parent="1">
          <mxGeometry x="806" y="478" width="47" height="34" as="geometry" />
        </mxCell>
        <mxCell id="0HNy9rPGnwpjirOVKz7A-132" value="&lt;font style=&quot;color: rgb(0, 0, 0); font-size: 10px;&quot;&gt;Házszám&lt;/font&gt;" style="ellipse;whiteSpace=wrap;html=1;fillColor=#FFFFFF;strokeColor=#000000;" vertex="1" parent="1">
          <mxGeometry x="906" y="478" width="47" height="34" as="geometry" />
        </mxCell>
        <mxCell id="0HNy9rPGnwpjirOVKz7A-133" value="&lt;font style=&quot;color: rgb(0, 0, 0); font-size: 10px;&quot;&gt;Utca&lt;/font&gt;" style="ellipse;whiteSpace=wrap;html=1;fillColor=#FFFFFF;strokeColor=#000000;" vertex="1" parent="1">
          <mxGeometry x="855" y="478" width="47" height="34" as="geometry" />
        </mxCell>
        <mxCell id="0HNy9rPGnwpjirOVKz7A-134" value="" style="rounded=0;whiteSpace=wrap;html=1;rotation=90;fillColor=#FFFFFF;strokeColor=#000000;" vertex="1" parent="1">
          <mxGeometry x="808.75" y="401" width="41.5" height="25.5" as="geometry" />
        </mxCell>
        <mxCell id="0HNy9rPGnwpjirOVKz7A-135" value="" style="rounded=0;whiteSpace=wrap;html=1;rotation=90;fillColor=#FFFFFF;strokeColor=#000000;" vertex="1" parent="1">
          <mxGeometry x="757.75" y="401" width="41.5" height="25.5" as="geometry" />
        </mxCell>
        <mxCell id="0HNy9rPGnwpjirOVKz7A-136" value="" style="rounded=0;whiteSpace=wrap;html=1;rotation=90;fillColor=#FFFFFF;strokeColor=#000000;" vertex="1" parent="1">
          <mxGeometry x="808.75" y="551" width="41.5" height="25.5" as="geometry" />
        </mxCell>
        <mxCell id="0HNy9rPGnwpjirOVKz7A-137" value="" style="rounded=0;whiteSpace=wrap;html=1;rotation=90;fillColor=#FFFFFF;strokeColor=#000000;" vertex="1" parent="1">
          <mxGeometry x="857.75" y="551" width="41.5" height="25.5" as="geometry" />
        </mxCell>
        <mxCell id="0HNy9rPGnwpjirOVKz7A-138" value="" style="rounded=0;whiteSpace=wrap;html=1;rotation=90;fillColor=#FFFFFF;strokeColor=#000000;" vertex="1" parent="1">
          <mxGeometry x="908.75" y="551" width="41.5" height="25.5" as="geometry" />
        </mxCell>
        <mxCell id="0HNy9rPGnwpjirOVKz7A-141" value="" style="endArrow=none;html=1;rounded=0;strokeColor=#000000;entryX=0.5;entryY=1;entryDx=0;entryDy=0;exitX=0.5;exitY=0;exitDx=0;exitDy=0;" edge="1" parent="1" source="0HNy9rPGnwpjirOVKz7A-146" target="0HNy9rPGnwpjirOVKz7A-18">
          <mxGeometry width="50" height="50" relative="1" as="geometry">
            <mxPoint x="1014" y="296" as="sourcePoint" />
            <mxPoint x="1064" y="246" as="targetPoint" />
          </mxGeometry>
        </mxCell>
        <mxCell id="0HNy9rPGnwpjirOVKz7A-142" value="" style="endArrow=none;html=1;rounded=0;strokeColor=#000000;entryX=0.5;entryY=1;entryDx=0;entryDy=0;exitX=0.5;exitY=0;exitDx=0;exitDy=0;" edge="1" parent="1" source="0HNy9rPGnwpjirOVKz7A-145" target="0HNy9rPGnwpjirOVKz7A-18">
          <mxGeometry width="50" height="50" relative="1" as="geometry">
            <mxPoint x="932" y="264" as="sourcePoint" />
            <mxPoint x="982" y="214" as="targetPoint" />
          </mxGeometry>
        </mxCell>
        <mxCell id="0HNy9rPGnwpjirOVKz7A-143" value="" style="endArrow=none;html=1;rounded=0;strokeColor=#000000;entryX=0.5;entryY=1;entryDx=0;entryDy=0;exitX=0;exitY=0.5;exitDx=0;exitDy=0;" edge="1" parent="1" source="0HNy9rPGnwpjirOVKz7A-148" target="0HNy9rPGnwpjirOVKz7A-146">
          <mxGeometry width="50" height="50" relative="1" as="geometry">
            <mxPoint x="1092" y="466" as="sourcePoint" />
            <mxPoint x="1142" y="416" as="targetPoint" />
          </mxGeometry>
        </mxCell>
        <mxCell id="0HNy9rPGnwpjirOVKz7A-144" value="" style="endArrow=none;html=1;rounded=0;strokeColor=#000000;entryX=0.5;entryY=1;entryDx=0;entryDy=0;exitX=0;exitY=0.5;exitDx=0;exitDy=0;" edge="1" parent="1" source="0HNy9rPGnwpjirOVKz7A-147" target="0HNy9rPGnwpjirOVKz7A-145">
          <mxGeometry width="50" height="50" relative="1" as="geometry">
            <mxPoint x="1010" y="496" as="sourcePoint" />
            <mxPoint x="1060" y="446" as="targetPoint" />
          </mxGeometry>
        </mxCell>
        <mxCell id="0HNy9rPGnwpjirOVKz7A-145" value="&lt;font style=&quot;color: rgb(0, 0, 0); font-size: 10px;&quot;&gt;Összeg&lt;/font&gt;" style="ellipse;whiteSpace=wrap;html=1;fillColor=#FFFFFF;strokeColor=#000000;" vertex="1" parent="1">
          <mxGeometry x="939" y="330" width="47" height="34" as="geometry" />
        </mxCell>
        <mxCell id="0HNy9rPGnwpjirOVKz7A-146" value="&lt;font style=&quot;color: rgb(0, 0, 0); font-size: 10px;&quot;&gt;Étel&lt;/font&gt;" style="ellipse;whiteSpace=wrap;html=1;fillColor=#FFFFFF;strokeColor=#000000;" vertex="1" parent="1">
          <mxGeometry x="997" y="330" width="47" height="34" as="geometry" />
        </mxCell>
        <mxCell id="0HNy9rPGnwpjirOVKz7A-147" value="" style="rounded=0;whiteSpace=wrap;html=1;rotation=90;fillColor=#FFFFFF;strokeColor=#000000;" vertex="1" parent="1">
          <mxGeometry x="941.75" y="403" width="41.5" height="25.5" as="geometry" />
        </mxCell>
        <mxCell id="0HNy9rPGnwpjirOVKz7A-148" value="" style="rounded=0;whiteSpace=wrap;html=1;rotation=90;fillColor=#FFFFFF;strokeColor=#000000;" vertex="1" parent="1">
          <mxGeometry x="999.75" y="403" width="41.5" height="25.5" as="geometry" />
        </mxCell>
        <mxCell id="0HNy9rPGnwpjirOVKz7A-149" value="" style="endArrow=none;dashed=1;html=1;rounded=0;strokeColor=#000000;exitX=0.5;exitY=1;exitDx=0;exitDy=0;entryX=0.5;entryY=1;entryDx=0;entryDy=0;" edge="1" parent="1" source="0HNy9rPGnwpjirOVKz7A-23" target="0HNy9rPGnwpjirOVKz7A-21">
          <mxGeometry width="50" height="50" relative="1" as="geometry">
            <mxPoint x="379" y="482" as="sourcePoint" />
            <mxPoint x="16" y="224" as="targetPoint" />
            <Array as="points">
              <mxPoint x="381" y="261" />
              <mxPoint x="385" y="435" />
              <mxPoint x="381" y="602" />
              <mxPoint x="29" y="599" />
            </Array>
          </mxGeometry>
        </mxCell>
        <mxCell id="0HNy9rPGnwpjirOVKz7A-150" value="" style="endArrow=none;dashed=1;html=1;rounded=0;strokeColor=#000000;entryX=0.5;entryY=1;entryDx=0;entryDy=0;exitX=0.571;exitY=0.857;exitDx=0;exitDy=0;exitPerimeter=0;" edge="1" parent="1" source="0HNy9rPGnwpjirOVKz7A-21" target="0HNy9rPGnwpjirOVKz7A-25">
          <mxGeometry width="50" height="50" relative="1" as="geometry">
            <mxPoint x="12" y="154" as="sourcePoint" />
            <mxPoint x="561.5" y="444" as="targetPoint" />
            <Array as="points">
              <mxPoint x="27" y="227" />
              <mxPoint x="23" y="612" />
              <mxPoint x="547" y="614" />
              <mxPoint x="547" y="263" />
            </Array>
          </mxGeometry>
        </mxCell>
        <mxCell id="0HNy9rPGnwpjirOVKz7A-151" value="" style="endArrow=none;dashed=1;html=1;rounded=0;strokeColor=#000000;entryX=0.5;entryY=1;entryDx=0;entryDy=0;exitX=0.5;exitY=1;exitDx=0;exitDy=0;" edge="1" parent="1" source="0HNy9rPGnwpjirOVKz7A-21" target="0HNy9rPGnwpjirOVKz7A-27">
          <mxGeometry width="50" height="50" relative="1" as="geometry">
            <mxPoint x="15" y="220" as="sourcePoint" />
            <mxPoint x="758" y="589" as="targetPoint" />
            <Array as="points">
              <mxPoint x="19" y="238" />
              <mxPoint x="17" y="626" />
              <mxPoint x="734" y="631" />
              <mxPoint x="732" y="262" />
            </Array>
          </mxGeometry>
        </mxCell>
        <mxCell id="0HNy9rPGnwpjirOVKz7A-152" value="" style="endArrow=none;dashed=1;html=1;rounded=0;strokeColor=#000000;entryX=0.5;entryY=1;entryDx=0;entryDy=0;exitX=0.5;exitY=1;exitDx=0;exitDy=0;" edge="1" parent="1" source="0HNy9rPGnwpjirOVKz7A-21" target="0HNy9rPGnwpjirOVKz7A-30">
          <mxGeometry width="50" height="50" relative="1" as="geometry">
            <mxPoint x="7" y="207" as="sourcePoint" />
            <mxPoint x="1179" y="753" as="targetPoint" />
            <Array as="points">
              <mxPoint x="11" y="233" />
              <mxPoint x="11" y="677" />
              <mxPoint x="1074" y="684" />
              <mxPoint x="1072" y="248" />
            </Array>
          </mxGeometry>
        </mxCell>
        <mxCell id="0HNy9rPGnwpjirOVKz7A-153" value="" style="endArrow=none;dashed=1;html=1;rounded=0;strokeColor=#000000;entryX=0.5;entryY=1;entryDx=0;entryDy=0;exitX=0.5;exitY=1;exitDx=0;exitDy=0;" edge="1" parent="1" source="0HNy9rPGnwpjirOVKz7A-28" target="0HNy9rPGnwpjirOVKz7A-29">
          <mxGeometry width="50" height="50" relative="1" as="geometry">
            <mxPoint x="741" y="219" as="sourcePoint" />
            <mxPoint x="917" y="615" as="targetPoint" />
            <Array as="points">
              <mxPoint x="752" y="629" />
              <mxPoint x="981" y="631" />
              <mxPoint x="979" y="504" />
              <mxPoint x="939" y="454" />
              <mxPoint x="913" y="379" />
            </Array>
          </mxGeometry>
        </mxCell>
      </root>
    </mxGraphModel>
  </diagram>
</mxfile>
